<?xml version="1.0" standalone="no"?>
<!DOCTYPE svg PUBLIC "-//W3C//DTD SVG 20010904//EN"
 "http://www.w3.org/TR/2001/REC-SVG-20010904/DTD/svg10.dtd">
<svg version="1.0" xmlns="http://www.w3.org/2000/svg"
 width="534.000000pt" height="450.000000pt" viewBox="0 0 534.000000 450.000000"
 preserveAspectRatio="xMidYMid meet">

<g transform="translate(0.000000,450.000000) scale(0.100000,-0.100000)"
fill="#000000" stroke="none">
<path d="M1089 4131 c-232 -62 -410 -244 -463 -474 -14 -60 -16 -224 -16
-1408 0 -1198 2 -1348 16 -1412 40 -177 157 -332 314 -416 150 -80 19 -74
1724 -73 1141 0 1531 4 1570 13 172 40 333 171 415 336 67 134 63 37 61 1543
-1 1496 2 1427 -61 1553 -64 130 -161 226 -294 291 -143 70 -30 66 -1696 65
-1399 -1 -1509 -2 -1570 -18z m1245 -706 c319 -37 410 -85 409 -213 -1 -80
-25 -127 -77 -154 -22 -11 -42 -22 -44 -23 -2 -1 -18 -112 -38 -246 -44 -313
-67 -440 -109 -617 -105 -434 -232 -703 -415 -876 -256 -242 -656 -211 -793
61 -76 149 -54 373 54 556 112 189 422 417 732 538 48 19 89 41 92 49 2 8 14
94 25 190 12 96 27 222 34 280 8 58 12 107 9 109 -9 11 -309 12 -423 2 -197
-18 -284 -47 -349 -115 -30 -31 -35 -44 -39 -94 -4 -50 1 -70 28 -132 41 -93
36 -128 -25 -187 -54 -51 -126 -72 -192 -54 -52 14 -104 72 -135 150 -26 67
-36 240 -19 321 45 212 227 358 530 425 197 44 514 57 745 30z m999 -723 c36
-18 82 -51 102 -74 26 -28 42 -38 50 -32 7 5 35 28 64 51 76 62 148 87 251 88
75 0 90 -3 132 -28 70 -41 83 -72 83 -192 0 -92 -3 -104 -29 -153 -37 -66 -77
-92 -144 -92 -62 0 -103 30 -121 89 -6 23 -16 41 -21 41 -5 0 -20 -24 -34 -52
-58 -119 -76 -306 -38 -391 22 -49 70 -87 110 -87 43 0 112 42 160 97 103 120
107 123 151 123 76 0 109 -61 98 -180 -6 -75 -42 -140 -115 -214 -100 -101
-217 -142 -377 -133 -107 5 -174 29 -250 86 -30 23 -57 41 -60 41 -4 0 -26
-16 -49 -35 -23 -19 -69 -47 -102 -62 -52 -24 -71 -28 -159 -28 -116 0 -167
18 -230 80 -52 53 -78 115 -83 206 -11 182 81 307 226 310 66 2 107 -15 122
-50 6 -17 10 -68 8 -127 l-3 -99 25 0 c19 0 33 12 58 49 50 74 75 173 76 291
1 147 -32 223 -62 141 -7 -19 -29 -48 -48 -65 -30 -27 -42 -31 -92 -31 -108 0
-157 59 -156 185 2 128 57 213 170 261 50 21 71 24 141 21 67 -3 93 -9 146
-35z"/>
<path d="M2005 2099 c-164 -85 -308 -216 -365 -333 -29 -58 -35 -82 -38 -157
-4 -87 -4 -88 26 -119 63 -63 156 -31 240 82 73 97 122 213 172 405 17 65 34
126 36 136 7 23 -1 22 -71 -14z"/>
</g>
</svg>
